<svg xmlns="http://www.w3.org/2000/svg" xmlns:xlink="http://www.w3.org/1999/xlink" viewBox="0 0 411.66 689.94"><defs><style>.a{fill:url(#a);}.b,.h{opacity:0.41;}.c{fill:url(#b);}.d{fill:url(#c);}.e{fill:url(#d);}.bf,.f{opacity:0.54;}.f{fill:url(#e);}.g{fill:url(#f);}.h{fill:url(#g);}.i{opacity:0.32;fill:url(#h);}.j{fill:url(#i);}.at,.k{opacity:0.5;}.k{fill:url(#j);}.au,.bk,.bn,.l,.m,.n,.o,.p{fill:none;}.l,.m,.n,.o,.p{stroke:#fff;stroke-miterlimit:10;}.ah,.l{opacity:0.51;}.m{opacity:0.73;}.n{opacity:0.31;}.o{opacity:0.36;}.ag,.p{opacity:0.25;}.q{opacity:0.26;}.r{fill:url(#k);}.s{opacity:0.08;}.t{fill:url(#l);}.u{opacity:0.12;}.v{fill:url(#m);}.w{fill:url(#n);}.x{fill:url(#o);}.y{opacity:0.29;}.z{fill:#c6c6c6;}.aa{fill:url(#p);}.ab{fill:url(#q);}.ac{fill:url(#r);}.ad{opacity:0.65;}.ae{fill:url(#s);}.af{opacity:0.42;fill:url(#t);}.ag{fill:url(#u);}.ah{fill:url(#v);}.ai{fill:url(#w);}.aj{opacity:0.52;}.ak{fill:#0f62fe;}.al{fill:#0043ce;}.am{opacity:0.59;}.an{fill:url(#x);}.ao{fill:#4589ff;}.ap{opacity:0.86;}.aq{fill:url(#y);}.ar{opacity:0.62;}.as{fill:url(#z);}.au{stroke:#697077;}.au,.bk,.bn{stroke-linejoin:bevel;}.av{fill:url(#aa);}.aw{fill:url(#ab);}.ax{fill:url(#ac);}.ay{fill:url(#ad);}.az{opacity:0.8;}.ba,.bj{fill:#42be65;}.bb{fill:#a56eff;}.bc,.bh{fill:#3ddbd9;}.bd,.bi{fill:#da1e28;}.be{opacity:0.18;}.bg{opacity:0.77;}.bh,.bi,.bj{opacity:0.75;}.bk{stroke:#595959;}.bl{fill:#697077;}.bm{opacity:0.45;}.bn{stroke:#343a3f;}.bo{opacity:0.56;}.bp{fill:#d0e2ff;}.bq{opacity:0.1;}.br{fill:#c1c7cd;}.bs{fill:#33b1ff;}.bt{fill:url(#ae);}.bu{fill:#e5e0df;}</style><linearGradient id="a" x1="43.74" y1="209.27" x2="230.14" y2="209.27" gradientUnits="userSpaceOnUse"><stop offset="0" stop-color="#f2f4f8"/><stop offset="0.17" stop-color="#eeeef1"/><stop offset="0.6" stop-color="#e7e4e4"/><stop offset="1" stop-color="#e5e0df"/></linearGradient><linearGradient id="b" x1="136.52" y1="34.84" x2="136.52" y2="187.11" gradientUnits="userSpaceOnUse"><stop offset="0" stop-color="#fff" stop-opacity="0"/><stop offset="0.09" stop-color="#f8faff" stop-opacity="0.03"/><stop offset="0.22" stop-color="#e5eeff" stop-opacity="0.11"/><stop offset="0.37" stop-color="#c6d9ff" stop-opacity="0.24"/><stop offset="0.55" stop-color="#9abdff" stop-opacity="0.42"/><stop offset="0.75" stop-color="#6298fe" stop-opacity="0.65"/><stop offset="0.95" stop-color="#1f6dfe" stop-opacity="0.93"/><stop offset="1" stop-color="#0f62fe"/></linearGradient><linearGradient id="c" x1="64.04" y1="209.29" x2="208.9" y2="209.29" gradientUnits="userSpaceOnUse"><stop offset="0" stop-color="#fff"/><stop offset="0.15" stop-color="#fbfcff"/><stop offset="0.29" stop-color="#eff5ff"/><stop offset="0.44" stop-color="#dbe8ff"/><stop offset="0.59" stop-color="#bfd6ff"/><stop offset="0.74" stop-color="#9bbfff"/><stop offset="0.88" stop-color="#6fa4ff"/><stop offset="1" stop-color="#4589ff"/></linearGradient><radialGradient id="d" cx="186.74" cy="115.89" fx="177.1527151178801" r="12.09" gradientTransform="translate(-93.45 -66.8) scale(1 1.7)" gradientUnits="userSpaceOnUse"><stop offset="0.48" stop-color="#fff"/><stop offset="0.58" stop-color="#f2eaff"/><stop offset="0.77" stop-color="#d1b5ff"/><stop offset="1" stop-color="#a56eff"/></radialGradient><radialGradient id="e" cx="223.11" cy="131.46" r="3.54" gradientTransform="translate(-93.45 -77.7) scale(1 1.7)" gradientUnits="userSpaceOnUse"><stop offset="0.12" stop-color="#fff"/><stop offset="0.28" stop-color="#f2eaff"/><stop offset="0.61" stop-color="#d1b5ff"/><stop offset="1" stop-color="#a56eff"/></radialGradient><radialGradient id="f" cx="251.79" cy="121.17" fx="245.1519064000315" r="8.37" gradientTransform="translate(-93.45 -112.07) scale(1 2.04)" gradientUnits="userSpaceOnUse"><stop offset="0.24" stop-color="#fff"/><stop offset="0.38" stop-color="#f2eaff"/><stop offset="0.66" stop-color="#d1b5ff"/><stop offset="1" stop-color="#a56eff"/></radialGradient><radialGradient id="g" cx="224.79" cy="94.22" r="6.34" gradientTransform="translate(-93.45 -51.63) scale(1 1.7)" gradientUnits="userSpaceOnUse"><stop offset="0.3" stop-color="#fff"/><stop offset="0.53" stop-color="#f0eaff"/><stop offset="1" stop-color="#cab5fe"/><stop offset="1" stop-color="#cab5fe"/></radialGradient><radialGradient id="h" cx="276.67" cy="62.92" fx="268.80456314149626" r="13.17" gradientTransform="matrix(1, 0.07, -0.11, 1.59, -85.93, -41.94)" gradientUnits="userSpaceOnUse"><stop offset="0.23" stop-color="#fff"/><stop offset="0.33" stop-color="#faf6ff"/><stop offset="0.48" stop-color="#ebdeff"/><stop offset="0.68" stop-color="#d2b7ff"/><stop offset="0.91" stop-color="#b181ff"/><stop offset="0.98" stop-color="#a56eff"/></radialGradient><radialGradient id="i" cx="209.57" cy="186.35" fx="199.9844976727534" r="12.09" gradientTransform="translate(-93.45 -116.13) scale(1 1.7)" gradientUnits="userSpaceOnUse"><stop offset="0.69" stop-color="#fff"/><stop offset="0.75" stop-color="#f2eaff"/><stop offset="0.86" stop-color="#d1b5ff"/><stop offset="1" stop-color="#a56eff"/></radialGradient><radialGradient id="j" cx="260.67" cy="164.65" fx="260.6656517346619" r="6.34" gradientTransform="translate(-93.45 -100.94) scale(1 1.7)" xlink:href="#d"/><linearGradient id="k" x1="136.52" y1="76.87" x2="136.52" y2="216.42" gradientUnits="userSpaceOnUse"><stop offset="0" stop-color="#fff" stop-opacity="0"/><stop offset="0.09" stop-color="#e0f3ff" stop-opacity="0.15"/><stop offset="0.22" stop-color="#b3e2ff" stop-opacity="0.37"/><stop offset="0.36" stop-color="#8cd3ff" stop-opacity="0.57"/><stop offset="0.5" stop-color="#6cc7ff" stop-opacity="0.72"/><stop offset="0.63" stop-color="#53bdff" stop-opacity="0.84"/><stop offset="0.76" stop-color="#41b6ff" stop-opacity="0.93"/><stop offset="0.89" stop-color="#37b2ff" stop-opacity="0.98"/><stop offset="1" stop-color="#33b1ff"/></linearGradient><linearGradient id="l" x1="172.82" y1="80.74" x2="172.82" y2="237.47" gradientUnits="userSpaceOnUse"><stop offset="0" stop-color="#fff" stop-opacity="0"/><stop offset="0.11" stop-color="#d0e0ff" stop-opacity="0.2"/><stop offset="0.24" stop-color="#9dbfff" stop-opacity="0.41"/><stop offset="0.37" stop-color="#72a3fe" stop-opacity="0.59"/><stop offset="0.5" stop-color="#4e8bfe" stop-opacity="0.74"/><stop offset="0.63" stop-color="#3279fe" stop-opacity="0.85"/><stop offset="0.75" stop-color="#1f6cfe" stop-opacity="0.93"/><stop offset="0.88" stop-color="#1365fe" stop-opacity="0.98"/><stop offset="1" stop-color="#0f62fe"/></linearGradient><linearGradient id="m" x1="100.23" y1="76.92" x2="100.23" y2="216.43" xlink:href="#k"/><linearGradient id="n" x1="90.34" y1="499.96" x2="90.34" y2="242.09" gradientUnits="userSpaceOnUse"><stop offset="0" stop-color="#fff" stop-opacity="0"/><stop offset="0.16" stop-color="#fff" stop-opacity="0.01"/><stop offset="0.3" stop-color="#fdfdfd" stop-opacity="0.06"/><stop offset="0.42" stop-color="#fbfbfb" stop-opacity="0.14"/><stop offset="0.54" stop-color="#f9f7f7" stop-opacity="0.24"/><stop offset="0.66" stop-color="#f5f3f3" stop-opacity="0.38"/><stop offset="0.77" stop-color="#f1eeed" stop-opacity="0.56"/><stop offset="0.89" stop-color="#ebe7e7" stop-opacity="0.76"/><stop offset="0.99" stop-color="#e5e0df" stop-opacity="0.99"/><stop offset="1" stop-color="#e5e0df"/></linearGradient><linearGradient id="o" x1="183.77" y1="499.96" x2="183.77" y2="242.04" gradientUnits="userSpaceOnUse"><stop offset="0" stop-color="#fff" stop-opacity="0"/><stop offset="0.1" stop-color="#fdfdfd" stop-opacity="0.04"/><stop offset="0.26" stop-color="#f7f7f7" stop-opacity="0.15"/><stop offset="0.45" stop-color="#ededed" stop-opacity="0.32"/><stop offset="0.67" stop-color="#dfdfdf" stop-opacity="0.56"/><stop offset="0.91" stop-color="#cecece" stop-opacity="0.87"/><stop offset="1" stop-color="#c6c6c6"/></linearGradient><linearGradient id="p" y1="384.72" x2="186.4" y2="384.72" gradientUnits="userSpaceOnUse"><stop offset="0" stop-color="#fff"/><stop offset="0.27" stop-color="#f3f1f1"/><stop offset="0.65" stop-color="#e9e4e4"/><stop offset="1" stop-color="#e5e0df"/></linearGradient><linearGradient id="q" x1="46.6" y1="651.52" x2="46.6" y2="393.64" gradientUnits="userSpaceOnUse"><stop offset="0" stop-color="#fff" stop-opacity="0"/><stop offset="0.1" stop-color="#fefefe" stop-opacity="0.03"/><stop offset="0.23" stop-color="#fcfcfc" stop-opacity="0.1"/><stop offset="0.39" stop-color="#f9f8f8" stop-opacity="0.22"/><stop offset="0.55" stop-color="#f5f3f3" stop-opacity="0.39"/><stop offset="0.73" stop-color="#efecec" stop-opacity="0.6"/><stop offset="0.91" stop-color="#e9e4e3" stop-opacity="0.86"/><stop offset="1" stop-color="#e5e0df"/></linearGradient><linearGradient id="r" x1="140.02" y1="658.31" x2="140.02" y2="400.39" gradientUnits="userSpaceOnUse"><stop offset="0" stop-color="#fff" stop-opacity="0"/><stop offset="0.17" stop-color="#fefefe" stop-opacity="0.02"/><stop offset="0.31" stop-color="#fbfbfb" stop-opacity="0.07"/><stop offset="0.44" stop-color="#f6f6f6" stop-opacity="0.16"/><stop offset="0.58" stop-color="#efefef" stop-opacity="0.29"/><stop offset="0.7" stop-color="#e5e5e5" stop-opacity="0.45"/><stop offset="0.83" stop-color="#dadada" stop-opacity="0.65"/><stop offset="0.95" stop-color="#ccc" stop-opacity="0.89"/><stop offset="1" stop-color="#c6c6c6"/></linearGradient><linearGradient id="s" x1="213.32" y1="211.27" x2="213.32" y2="338.97" gradientUnits="userSpaceOnUse"><stop offset="0" stop-color="#fff" stop-opacity="0"/><stop offset="0.08" stop-color="#dbe8ff" stop-opacity="0.15"/><stop offset="0.22" stop-color="#a6c5ff" stop-opacity="0.37"/><stop offset="0.36" stop-color="#78a6fe" stop-opacity="0.56"/><stop offset="0.5" stop-color="#528efe" stop-opacity="0.72"/><stop offset="0.63" stop-color="#357bfe" stop-opacity="0.84"/><stop offset="0.76" stop-color="#206dfe" stop-opacity="0.93"/><stop offset="0.89" stop-color="#1365fe" stop-opacity="0.98"/><stop offset="1" stop-color="#0f62fe"/></linearGradient><linearGradient id="t" x1="200.88" y1="334.31" x2="232.17" y2="262.1" gradientUnits="userSpaceOnUse"><stop offset="0" stop-color="#fff" stop-opacity="0"/><stop offset="0.01" stop-color="#fffdfd" stop-opacity="0.01"/><stop offset="0.16" stop-color="#f5c3c5" stop-opacity="0.27"/><stop offset="0.31" stop-color="#ed9095" stop-opacity="0.49"/><stop offset="0.46" stop-color="#e6676e" stop-opacity="0.67"/><stop offset="0.6" stop-color="#e1474f" stop-opacity="0.82"/><stop offset="0.74" stop-color="#dd303a" stop-opacity="0.92"/><stop offset="0.88" stop-color="#db232c" stop-opacity="0.98"/><stop offset="1" stop-color="#da1e28"/></linearGradient><linearGradient id="u" x1="212.02" y1="324.21" x2="214.96" y2="286.96" gradientUnits="userSpaceOnUse"><stop offset="0" stop-color="#fff" stop-opacity="0"/><stop offset="0.04" stop-color="#ddf3e3" stop-opacity="0.18"/><stop offset="0.09" stop-color="#b8e7c6" stop-opacity="0.37"/><stop offset="0.15" stop-color="#98dcab" stop-opacity="0.54"/><stop offset="0.21" stop-color="#7dd295" stop-opacity="0.69"/><stop offset="0.28" stop-color="#67cb83" stop-opacity="0.8"/><stop offset="0.36" stop-color="#56c576" stop-opacity="0.89"/><stop offset="0.46" stop-color="#4bc16c" stop-opacity="0.95"/><stop offset="0.6" stop-color="#44bf67" stop-opacity="0.99"/><stop offset="1" stop-color="#42be65"/></linearGradient><linearGradient id="v" x1="215.97" y1="287.31" x2="210.02" y2="333.29" gradientUnits="userSpaceOnUse"><stop offset="0" stop-color="#fff" stop-opacity="0"/><stop offset="0.08" stop-color="#ebfbfb" stop-opacity="0.1"/><stop offset="0.33" stop-color="#aef0ef" stop-opacity="0.42"/><stop offset="0.56" stop-color="#7de7e6" stop-opacity="0.67"/><stop offset="0.75" stop-color="#5ae0df" stop-opacity="0.85"/><stop offset="0.91" stop-color="#45dcdb" stop-opacity="0.96"/><stop offset="1" stop-color="#3ddbd9"/></linearGradient><linearGradient id="w" x1="227.48" y1="274.42" x2="209.26" y2="317.37" gradientUnits="userSpaceOnUse"><stop offset="0.41" stop-color="#d0b3ff" stop-opacity="0.52"/><stop offset="0.6" stop-color="#bf97ff" stop-opacity="0.72"/><stop offset="0.77" stop-color="#b181ff" stop-opacity="0.87"/><stop offset="0.91" stop-color="#a873ff" stop-opacity="0.97"/><stop offset="1" stop-color="#a56eff"/></linearGradient><linearGradient id="x" x1="154.38" y1="251.29" x2="156.62" y2="369.48" gradientUnits="userSpaceOnUse"><stop offset="0.28" stop-color="#fff" stop-opacity="0"/><stop offset="0.34" stop-color="#e0f3ff" stop-opacity="0.15"/><stop offset="0.44" stop-color="#b3e2ff" stop-opacity="0.37"/><stop offset="0.54" stop-color="#8cd3ff" stop-opacity="0.57"/><stop offset="0.64" stop-color="#6cc7ff" stop-opacity="0.72"/><stop offset="0.74" stop-color="#53bdff" stop-opacity="0.84"/><stop offset="0.83" stop-color="#41b6ff" stop-opacity="0.93"/><stop offset="0.92" stop-color="#37b2ff" stop-opacity="0.98"/><stop offset="1" stop-color="#33b1ff"/></linearGradient><linearGradient id="y" x1="144.39" y1="316.72" x2="144.39" y2="361.67" gradientUnits="userSpaceOnUse"><stop offset="0.21" stop-color="#fff" stop-opacity="0"/><stop offset="0.27" stop-color="#e0f3ff" stop-opacity="0.15"/><stop offset="0.38" stop-color="#b3e2ff" stop-opacity="0.37"/><stop offset="0.49" stop-color="#8cd3ff" stop-opacity="0.57"/><stop offset="0.6" stop-color="#6cc7ff" stop-opacity="0.72"/><stop offset="0.71" stop-color="#53bdff" stop-opacity="0.84"/><stop offset="0.81" stop-color="#41b6ff" stop-opacity="0.93"/><stop offset="0.91" stop-color="#37b2ff" stop-opacity="0.98"/><stop offset="1" stop-color="#33b1ff"/></linearGradient><linearGradient id="z" x1="156.96" y1="331.14" x2="156.96" y2="383.52" gradientUnits="userSpaceOnUse"><stop offset="0.17" stop-color="#fff" stop-opacity="0"/><stop offset="0.39" stop-color="#bce5ff" stop-opacity="0.33"/><stop offset="0.61" stop-color="#81cfff" stop-opacity="0.62"/><stop offset="0.79" stop-color="#57bfff" stop-opacity="0.82"/><stop offset="0.93" stop-color="#3db5ff" stop-opacity="0.95"/><stop offset="1" stop-color="#33b1ff"/></linearGradient><linearGradient id="aa" x1="263.5" y1="600.59" x2="263.5" y2="342.72" gradientUnits="userSpaceOnUse"><stop offset="0.2" stop-color="#fff" stop-opacity="0"/><stop offset="0.41" stop-color="#f9f7f7" stop-opacity="0.25"/><stop offset="0.89" stop-color="#e9e4e4" stop-opacity="0.86"/><stop offset="1" stop-color="#e5e0df"/></linearGradient><linearGradient id="ab" x1="356.92" y1="600.59" x2="356.92" y2="342.67" gradientUnits="userSpaceOnUse"><stop offset="0.2" stop-color="#fff" stop-opacity="0"/><stop offset="0.98" stop-color="#c6c6c6"/><stop offset="0.98" stop-color="#c7c7c7"/><stop offset="1" stop-color="#ccc"/></linearGradient><linearGradient id="ac" x1="216.9" y1="309.9" x2="403.3" y2="309.9" xlink:href="#p"/><linearGradient id="ad" x1="332.69" y1="165.72" x2="436.55" y2="238.37" gradientUnits="userSpaceOnUse"><stop offset="0" stop-color="#fff" stop-opacity="0"/><stop offset="0" stop-color="#fdfeff" stop-opacity="0.01"/><stop offset="0.08" stop-color="#ccdeff" stop-opacity="0.21"/><stop offset="0.17" stop-color="#a0c1ff" stop-opacity="0.4"/><stop offset="0.26" stop-color="#79a7fe" stop-opacity="0.56"/><stop offset="0.35" stop-color="#5892fe" stop-opacity="0.7"/><stop offset="0.45" stop-color="#3d80fe" stop-opacity="0.81"/><stop offset="0.56" stop-color="#2973fe" stop-opacity="0.89"/><stop offset="0.67" stop-color="#1a69fe" stop-opacity="0.95"/><stop offset="0.81" stop-color="#1264fe" stop-opacity="0.99"/><stop offset="1" stop-color="#0f62fe"/></linearGradient><linearGradient id="ae" x1="292.75" y1="259.3" x2="343.95" y2="259.3" xlink:href="#p"/></defs><title>unauth</title><polygon class="a" points="43.74 209.27 136.94 155.46 230.14 209.21 136.84 263.08 43.74 209.27"/><g class="b"><polygon class="c" points="136.94 0 63.93 41.91 64.04 209.26 136.52 167.46 209.11 209.31 209.11 41.85 136.94 0"/></g><polygon class="d" points="64.04 209.26 136.52 167.41 208.9 209.31 136.52 251.16 64.04 209.26"/><circle class="e" cx="93.29" cy="130.24" r="10.67"/><circle class="f" cx="129.67" cy="145.81" r="3.13"/><circle class="g" cx="158.34" cy="135.52" r="7.39"/><circle class="h" cx="131.35" cy="108.57" r="5.6"/><circle class="i" cx="188.19" cy="80.23" r="10.67"/><circle class="j" cx="116.12" cy="200.7" r="10.67"/><circle class="k" cx="167.22" cy="179" r="5.6"/><line class="l" x1="103.75" y1="128.14" x2="151.15" y2="133.85"/><line class="m" x1="121.94" y1="191.76" x2="154.8" y2="141.93"/><line class="n" x1="136.94" y1="107.37" x2="179.61" y2="86.3"/><line class="o" x1="132.14" y1="148" x2="163.13" y2="174.93"/><line class="p" x1="186.18" y1="90.9" x2="168.38" y2="173.62"/><g class="q"><polygon class="r" points="136.52 83.76 63.93 41.91 64.04 209.26 136.52 251.16 209.11 209.31 209.11 41.85 136.52 83.76"/></g><g class="s"><polygon class="t" points="136.52 251.16 136.52 83.76 209.11 41.85 209.11 209.31 136.52 251.16"/></g><g class="u"><polygon class="v" points="64.04 209.26 136.52 251.16 136.52 83.76 63.93 41.91 64.04 209.26"/></g><polygon class="w" points="43.74 209.27 43.74 460.68 136.94 514.49 136.94 263.08 43.74 209.27"/><polygon class="x" points="230.14 209.21 136.94 263.08 136.94 514.49 230.59 460.42 230.14 209.21"/><g class="y"><polygon class="z" points="136.52 251.16 147.04 257.24 219.53 215.34 209.11 209.31 136.52 251.16"/></g><polygon class="aa" points="0 384.72 93.2 330.9 186.4 384.66 93.09 438.53 0 384.72"/><polygon class="ab" points="0 384.72 0 636.13 93.2 689.94 93.2 438.53 0 384.72"/><polygon class="ac" points="186.4 384.66 93.2 438.53 93.2 689.94 186.85 635.87 186.4 384.66"/><g class="ad"><path class="ae" d="M166.67,315.36V237.05a2.32,2.32,0,0,1,3.47-2l88.67,51.09a2.34,2.34,0,0,1,1.16,2v78.42a2.31,2.31,0,0,1-3.47,2l-88.68-51.2A2.31,2.31,0,0,1,166.67,315.36Z" transform="translate(-93.45 14.35)"/></g><path class="af" d="M260,334.75l-93.3-53.87s.55-8.68,3.89-12,1.7,12,4.76,12,9-18.92,16.65-17.88,3.74,28.27,9.17,29.9,13.28-13.62,19-12,5.1,23.1,10.88,25.82,9.88-7.83,16,2.72S250.6,329.39,260,334.75Z" transform="translate(-93.45 14.35)"/><path class="ag" d="M260,334.75l-93.3-53.87s3-1.73,10.45-.06,7.84,8.89,14.85,8.89,12-9.56,16.22-7.13,2.71,16.62,7.22,19.23,12.73-2.33,16.34,1.28,10.59,17.87,15.61,19.58S260,334.75,260,334.75Z" transform="translate(-93.45 14.35)"/><path class="ah" d="M260,334.75l-93.3-53.87s4.52,12.13,14.74,15.41,3.77,13.28,10.22,18c3.33,2.45,6.77-1.59,11.88-1.59s6.18,16.87,9.81,19,8.74-14.86,14.49-10.29c2,2,2.22,5.95,3.56,9.44,2.62,6.86,8.4-3.27,13-.17C250.16,334.61,253.89,334.75,260,334.75Z" transform="translate(-93.45 14.35)"/><path class="ai" d="M260,334.75l-93.3-53.87s-2,17,8.77,17c5.28,0,10.12-7.11,16,4.62,4,7.92,10.68,6.42,13.79,8.05,4.52,2.37,2.22,6.38,5.84,8.47s7.49-4.2,13.24.37c2,2-3,10.63-1.68,14.12,2.62,6.86,8.91-12.4,20.76,1.16C249.41,341.53,253.89,334.75,260,334.75Z" transform="translate(-93.45 14.35)"/><g class="aj"><path class="z" d="M136.9,370.31l9,5.78a36.59,36.59,0,0,0,7.24,2.37c5.32.64,14.2,0,20.17-3.83,6.69-4.31,3.39-16.07,3.39-16.07Z" transform="translate(-93.45 14.35)"/></g><polygon class="ak" points="39.8 360.21 39.88 368.11 62.09 368.82 62.09 360.33 39.8 360.21"/><polygon class="ak" points="62.09 360.09 62.09 387.94 78.25 386.46 78.25 369.56 62.09 360.09"/><path class="al" d="M177.8,363.86h0v-.31c0-.2,0-.41,0-.61V346.23a7.12,7.12,0,0,0,0-1.22H172l-.32,10.2v16.9C175.52,369.79,177.55,366.85,177.8,363.86Z" transform="translate(-93.45 14.35)"/><path class="ak" d="M171.7,337c-5.14-3-15.15-4.52-23.41-3.21v0l-.32.08-.43.06,0,0a27.53,27.53,0,0,0-7.78,2.89c-4.33,2.5-6.5,5.77-6.53,9.05h0v.23h22.68l15.77,9.11C180.41,350.18,180.41,342,171.7,337Z" transform="translate(-93.45 14.35)"/><g class="am"><path class="an" d="M177.82,343.66V278.08H133.23V346h0v.15l22.3-.12,16.15,9.23C177.13,352.07,179.17,347.71,177.82,343.66Z" transform="translate(-93.45 14.35)"/></g><polygon class="al" points="62.09 367.27 62.09 378.89 48.77 387.91 48.77 377.59 62.09 367.27"/><path class="ao" d="M133.33,353.76l-.09,0v10.07h0c.25,3.09,2.4,6.14,6.48,8.49a23.24,23.24,0,0,0,2.45,1.21V363.24Z" transform="translate(-93.45 14.35)"/><path class="ao" d="M133.33,351.76c-.58,3.68,1.57,7.46,6.43,10.27a24.42,24.42,0,0,0,2.46,1.21l13.32-10.32Z" transform="translate(-93.45 14.35)"/><g class="ap"><path class="aq" d="M133.23,326.89v26h0c0,3.3,2.17,6.6,6.52,9.11a24.42,24.42,0,0,0,2.46,1.21l13.32-10.32v-26Z" transform="translate(-93.45 14.35)"/></g><path class="al" d="M142.22,369.24v4.32c15.49,6.44,29.47-1.45,29.47-1.45V368Z" transform="translate(-93.45 14.35)"/><path class="ao" d="M142.22,369.24c8.74,3.77,21.53,3.34,29.47-1.24l-16.15-9.08Z" transform="translate(-93.45 14.35)"/><g class="ar"><path class="as" d="M171.69,329.92H142.22v39.32c8.74,3.77,21.53,3.34,29.47-1.24h0Z" transform="translate(-93.45 14.35)"/></g><g class="at"><polygon class="z" points="136.11 398.31 145.79 392.46 153.84 396.96 143.96 402.87 136.11 398.31"/></g><polygon class="ak" points="129.41 359.26 138.99 353.79 148.47 359.32 138.89 364.85 129.41 359.26"/><polygon class="ao" points="129.31 394.31 129.31 359.26 138.89 364.85 138.89 400.16 129.31 394.31"/><polygon class="al" points="148.56 394.31 148.56 359.32 138.89 364.85 138.89 400.16 148.56 394.31"/><g class="at"><polygon class="z" points="99.11 418.66 108.79 412.81 116.84 417.31 106.96 423.22 99.11 418.66"/></g><polygon class="ak" points="92.4 370.36 101.99 364.88 111.47 370.42 101.89 375.95 92.4 370.36"/><polygon class="ao" points="92.31 414.66 92.31 370.36 101.89 375.95 101.89 420.51 92.31 414.66"/><polygon class="al" points="111.56 414.66 111.56 370.42 101.89 375.95 101.89 420.51 111.56 414.66"/><g class="at"><polygon class="z" points="118.22 407.93 127.9 402.08 135.21 406.84 125.04 412.23 118.22 407.93"/></g><polygon class="ak" points="111.51 378.48 121.1 373 130.58 378.53 121 384.06 111.51 378.48"/><polygon class="ao" points="111.42 403.93 111.42 378.48 121 384.06 121 409.78 111.42 403.93"/><polygon class="al" points="130.67 403.93 130.67 378.53 121 384.06 121 409.78 130.67 403.93"/><polygon class="au" points="371.99 158.69 382.33 152.72 392.69 158.64 382.25 164.61 371.99 158.69"/><polygon class="au" points="392.69 337.93 392.69 158.64 382.25 164.61 382.25 343.96 392.69 337.93"/><polygon class="au" points="371.99 158.69 371.99 337.92 382.25 343.96 382.25 164.61 371.99 158.69"/><polygon class="au" points="372 294.2 382.3 288.17 392.69 294.2 382.3 300.13 372 294.2"/><polygon class="au" points="372 284.2 382.3 278.17 392.69 284.2 382.3 290.13 372 284.2"/><polygon class="au" points="372 274.2 382.3 268.17 392.69 274.2 382.3 280.13 372 274.2"/><polygon class="au" points="372 264.2 382.3 258.17 392.69 264.2 382.3 270.13 372 264.2"/><polygon class="au" points="372 254.2 382.3 248.17 392.69 254.2 382.3 260.13 372 254.2"/><polygon class="au" points="372 244.2 382.3 238.17 392.69 244.2 382.3 250.13 372 244.2"/><polygon class="au" points="372 234.2 382.3 228.17 392.69 234.2 382.3 240.13 372 234.2"/><polygon class="au" points="372 224.2 382.3 218.17 392.69 224.2 382.3 230.13 372 224.2"/><polygon class="au" points="372 214.2 382.3 208.17 392.69 214.2 382.3 220.13 372 214.2"/><polygon class="au" points="372 204.2 382.3 198.17 392.69 204.2 382.3 210.13 372 204.2"/><polygon class="au" points="372 194.2 382.3 188.17 392.69 194.2 382.3 200.13 372 194.2"/><polygon class="au" points="372 184.2 382.3 178.17 392.69 184.2 382.3 190.13 372 184.2"/><polygon class="au" points="372 174.2 382.3 168.17 392.69 174.2 382.3 180.13 372 174.2"/><polygon class="av" points="216.9 309.9 216.9 561.31 310.1 615.12 310.1 363.71 216.9 309.9"/><polygon class="aw" points="403.3 309.84 310.1 363.71 310.1 615.12 403.75 561.05 403.3 309.84"/><polygon class="ax" points="216.9 309.9 310.1 256.08 403.3 309.84 309.99 363.71 216.9 309.9"/><g class="ad"><path class="ay" d="M343.35,277.94V182a5.07,5.07,0,0,1,2.53-4.39l83.39-48.14a5.07,5.07,0,0,1,7.6,4.39v96.11a5.08,5.08,0,0,1-2.54,4.39l-83.39,48A5.06,5.06,0,0,1,343.35,277.94Z" transform="translate(-93.45 14.35)"/></g><g class="az"><polygon class="ba" points="308.92 256.39 316.62 252 316.55 225.3 308.92 229.77 308.92 256.39"/><polygon class="bb" points="324.37 247.56 324.37 194.28 331.98 189.83 332.06 243.09 324.37 247.56"/><polygon class="bc" points="301.31 260.84 301.25 216.46 293.63 220.94 293.53 265.25 301.31 260.84"/><polygon class="bd" points="285.88 269.71 285.88 260.87 278.19 265.25 278.19 274.19 285.88 269.71"/></g><g class="be"><path class="al" d="M343.35,189.73V183.5a7.72,7.72,0,0,1,3.86-6.68l82-47.34a5.11,5.11,0,0,1,7.66,4.42v2Z" transform="translate(-93.45 14.35)"/></g><g class="bf"><path class="al" d="M328.67,250.93V212.17a4,4,0,0,1,2-3.43l33.68-19.44a4,4,0,0,1,5.94,3.43v38.81a3.94,3.94,0,0,1-2,3.43l-33.69,19.4A4,4,0,0,1,328.67,250.93Z" transform="translate(-93.45 14.35)"/></g><g class="bg"><path class="bb" d="M352.48,213.8l.08-9.06a1.83,1.83,0,0,1,.92-1.58l8.18-4.73a1.85,1.85,0,0,1,2.77,1.58l.08,9.45a1.86,1.86,0,0,1-1,1.65l-8.34,4.34A1.84,1.84,0,0,1,352.48,213.8Z" transform="translate(-93.45 14.35)"/><path class="bh" d="M336.09,224.36l.08-9.26a1.89,1.89,0,0,1,.95-1.61l8.36-4.83a1.88,1.88,0,0,1,2.82,1.62l.08,9.64a1.88,1.88,0,0,1-1,1.69l-8.52,4.44A1.89,1.89,0,0,1,336.09,224.36Z" transform="translate(-93.45 14.35)"/><path class="bi" d="M336.09,242.87l.08-9.27a1.91,1.91,0,0,1,.95-1.62l8.37-4.83a1.89,1.89,0,0,1,2.83,1.62l.08,9.66a1.89,1.89,0,0,1-1,1.68l-8.53,4.45A1.89,1.89,0,0,1,336.09,242.87Z" transform="translate(-93.45 14.35)"/><path class="bj" d="M352.53,232.83l.08-9a1.81,1.81,0,0,1,.91-1.57l8.12-4.69a1.83,1.83,0,0,1,2.74,1.57l.08,9.37a1.85,1.85,0,0,1-1,1.64l-8.27,4.3A1.82,1.82,0,0,1,352.53,232.83Z" transform="translate(-93.45 14.35)"/></g><polygon class="bk" points="400.81 130.82 400.81 142.82 411.16 148.75 411.16 136.79 400.81 130.82"/><polygon class="bk" points="314.6 192.02 411.16 136.79 411.16 148.75 314.12 204.08 314.6 192.02"/><polygon class="bk" points="408.11 126.6 304.24 186.24 314.9 192.38 411.16 136.79 408.11 126.6"/><path class="bl" d="M488.36,121.93l8.69,5v10l-8.69-5v-10m-1-1.74v12.35l10.69,6.17V126.36l-10.69-6.17Z" transform="translate(-93.45 14.35)"/><path class="bl" d="M478.36,127.45l8.69,5v10l-8.69-5v-10m-1-1.73v12.35l10.69,6.17V131.89l-10.69-6.17Z" transform="translate(-93.45 14.35)"/><path class="bl" d="M468.36,133.23l8.69,5v10l-8.69-5v-10m-1-1.73v12.34L478.05,150V137.67l-10.69-6.17Z" transform="translate(-93.45 14.35)"/><path class="bl" d="M458.36,139.23l8.69,5v10l-8.69-5v-10m-1-1.73v12.34L468.05,156V143.67l-10.69-6.17Z" transform="translate(-93.45 14.35)"/><path class="bl" d="M448.36,144.62l8.69,5v10l-8.69-5v-10m-1-1.73v12.34l10.69,6.17V149.06l-10.69-6.17Z" transform="translate(-93.45 14.35)"/><path class="bl" d="M438.36,150.39l8.69,5v10l-8.69-5v-10m-1-1.73V161l10.69,6.18V154.83l-10.69-6.17Z" transform="translate(-93.45 14.35)"/><path class="bl" d="M428.36,156.13l8.69,5v10l-8.69-5v-10m-1-1.74v12.35l10.69,6.17V160.56l-10.69-6.17Z" transform="translate(-93.45 14.35)"/><path class="bl" d="M418.36,162.23l8.69,5v10l-8.69-5v-10m-1-1.73v12.34L428.05,179V166.67l-10.69-6.17Z" transform="translate(-93.45 14.35)"/><path class="bl" d="M408.36,167.59l8.69,5v10l-8.69-5v-10m-1-1.73v12.35l10.69,6.17V172l-10.69-6.17Z" transform="translate(-93.45 14.35)"/><path class="bl" d="M398.36,173.23l8.69,5v10l-8.69-5v-10m-1-1.73v12.34L408.05,190V177.67l-10.69-6.17Z" transform="translate(-93.45 14.35)"/><polyline class="au" points="393.92 134.98 382.77 127.93 373.99 157.85"/><polyline class="au" points="393.69 135.11 375.06 122.87 363.99 151.85"/><line class="au" x1="376.98" y1="147.66" x2="367.61" y2="142.36"/><line class="au" x1="379.98" y1="138.66" x2="370.61" y2="133.36"/><g class="bm"><polygon class="z" points="293.66 321.18 318.79 335.74 344.86 320.88 319.73 306.32 293.66 321.18"/></g><polyline class="bn" points="306.06 306.39 331.02 291.72 331.02 251.32"/><line class="bn" x1="331.02" y1="306.33" x2="306.31" y2="291.72"/><line class="bn" x1="306.06" y1="251.97" x2="306.06" y2="291.75"/><g class="bo"><polygon class="bp" points="318.82 244.59 292.75 259.45 292.75 299.26 317.88 313.82 343.95 298.96 343.95 259.16 318.82 244.59"/></g><g class="bq"><polygon class="br" points="292.75 299.45 317.88 314.01 343.95 299.16 318.82 284.6 292.75 299.45"/></g><polygon class="al" points="299.1 290.3 317.54 300.98 336.66 290.09 318.22 279.41 299.1 290.3"/><polygon class="ak" points="299.1 282.21 317.54 292.89 336.66 282 318.22 271.32 299.1 282.21"/><polygon class="bs" points="299.1 274.12 317.54 284.8 336.66 273.91 318.22 263.23 299.1 274.12"/><g class="at"><polygon class="bt" points="292.75 259.45 317.88 274.01 343.95 259.16 318.82 244.59 292.75 259.45"/><polygon class="bu" points="292.75 259.45 292.75 299.26 317.88 313.82 317.88 274.01 292.75 259.45"/><polygon class="z" points="343.95 259.16 343.95 298.96 317.88 313.82 317.88 274.01 343.95 259.16"/></g><polyline class="au" points="306.06 306.39 306.06 267.19 318.82 244.59 330.92 266.58 330.92 306.39"/><polyline class="au" points="318.82 202.01 318.82 244.59 306.06 251.97"/><line class="au" x1="331.02" y1="251.32" x2="318.82" y2="244.59"/><polygon class="al" points="378.95 172.22 396.81 161.56 396.81 151.33 378.95 161.54 378.95 172.22"/><path class="ak" d="M465.84,143.85,471,134.7a6,6,0,0,1,5.33-3.06l7.66.09L472.4,147.19Z" transform="translate(-93.45 14.35)"/><path class="al" d="M490.26,137l-3.49-3.86a4.21,4.21,0,0,0-6.79.74l-7.58,13.33Z" transform="translate(-93.45 14.35)"/><polygon class="ao" points="372.39 158.2 372.39 168.91 378.95 172.22 378.95 161.54 372.39 158.2"/></svg>