<svg xmlns="http://www.w3.org/2000/svg" width="72" height="26" viewBox="0 0 72 26">
	<g id="Group_10695" data-name="Group 10695" transform="translate(-1051 -644)">
		<g id="Group_10693" data-name="Group 10693">
			<path id="Path_6670" data-name="Path 6670" d="M192-1290h72v26H192Z" transform="translate(859 1934)" fill="#f3f3f3" fill-rule="evenodd" />
		</g>
		<g id="Group_10694" data-name="Group 10694" transform="translate(1101 646.5)">
			<path id="Path_10076" data-name="Path 10076" d="M15.917,4H5.083A1.083,1.083,0,0,0,4,5.083V15.917A1.083,1.083,0,0,0,5.083,17H15.917A1.083,1.083,0,0,0,17,15.917V5.083A1.083,1.083,0,0,0,15.917,4Zm-6.5,9.479L6.708,10.794l.862-.836,1.847,1.812L13.43,7.792l.862.854Z" transform="translate(0 0)" />
			<path id="Path_10077" data-name="Path 10077" d="M11.77,16.506,9,13.907l.881-.809,1.889,1.754L15.874,11l.882.827Z" transform="translate(-2.378 -3.114)" fill="none" />
		</g>
	</g>
</svg>
