<svg xmlns="http://www.w3.org/2000/svg" width="90" height="32" viewBox="0 0 90 32">
  <g id="Group_2" data-name="Group 2" transform="translate(-834 -524)">
    <g id="Group_1" data-name="Group 1">
      <path id="Background" d="M0,0H41a4,4,0,0,1,4,4V28a4,4,0,0,1-4,4H0a0,0,0,0,1,0,0V0A0,0,0,0,1,0,0Z" transform="translate(879 524)" fill="#f4f4f4"/>
      <text id="Right" transform="translate(885 543)" fill="#525252" font-size="13" font-family="IBMPlexSans, IBM Plex Sans" letter-spacing="0.001em"><tspan x="0" y="0">Right</tspan></text>
      <path id="Background-2" data-name="Background" d="M4,0H45a0,0,0,0,1,0,0V32a0,0,0,0,1,0,0H4a4,4,0,0,1-4-4V4A4,4,0,0,1,4,0Z" transform="translate(834 524)" fill="#161616"/>
      <rect id="min_padding" data-name="min padding" width="47" height="24" transform="translate(834 528)" fill="none"/>
      <text id="Left" transform="translate(842 543)" fill="#fff" font-size="13" font-family="IBMPlexSans, IBM Plex Sans" letter-spacing="0.001em"><tspan x="0" y="0">Left</tspan></text>
    </g>
  </g>
</svg>
