<?xml version="1.0" encoding="UTF-8" standalone="no"?>
<svg id="icon" xmlns="http://www.w3.org/2000/svg" width="16" height="16"  viewBox="0 0 16 16">
    <defs><style>.cls-1{fill:none;}</style></defs>
    <title>bee</title>
    <path
     d="M 8,5 A 3,3 0 0 0 5,8 v 4 a 3,3 0 0 0 6,0 V 8 A 3,3 0 0 0 8,5 Z M 5.875,8.935 h 4.25 V 11.06 H 5.875 Z M 8,14.125 A 2.135,2.135 0 0 1 5.875,12 v -0.065 h 4.25 V 12 A 2.135,2.135 0 0 1 8,14.125 Z M 10.125,8.06 H 5.875 V 8 a 2.125,2.125 0 0 1 4.25,0 z"
     id="path839"
     style="stroke-width:0.5" />
  <path
     d="M 15.33,9.605 12,6.5 v 4.55 a 2,2 0 0 0 4,0 1.915,1.915 0 0 0 -0.67,-1.445 z M 14,12.175 A 1.125,1.125 0 0 1 12.875,11.05 V 8.5 l 1.86,1.735 v 0 A 1.025,1.025 0 0 1 15.1,11 1.125,1.125 0 0 1 14,12.175 Z"
     id="path841"
     style="stroke-width:0.5" />
  <path
     d="m 0,11.05 a 2,2 0 0 0 4,0 V 6.5 L 0.67,9.605 A 1.94,1.94 0 0 0 0,11.05 Z m 1.24,-0.78 v 0 L 3.125,8.5 v 2.55 a 1.125,1.125 0 0 1 -2.25,0 1.025,1.025 0 0 1 0.365,-0.78 z"
     id="path843"
     style="stroke-width:0.5" />
  <path
     d="M 7.5,2.75 A 1.75,1.75 0 1 0 5.75,4.5 1.75,1.75 0 0 0 7.5,2.75 Z m -2.625,0 A 0.875,0.875 0 1 1 5.75,3.625 0.885,0.885 0 0 1 4.875,2.75 Z"
     id="path845"
     style="stroke-width:0.5" />
  <path
     d="M 10.25,1 A 1.75,1.75 0 1 0 12,2.75 1.75,1.75 0 0 0 10.25,1 Z m 0,2.625 A 0.875,0.875 0 1 1 11.125,2.75 0.885,0.885 0 0 1 10.25,3.625 Z"
     id="path847"
     style="stroke-width:0.5" />
  <rect
     id="_Transparent_Rectangle_"
     data-name="&lt;Transparent Rectangle&gt;"
     class="cls-1"
     width="16"
     height="16"
     x="0"
     y="0"
     style="stroke-width:0.5" />
</svg>
