<svg id="loading_large" data-name="loading / large" xmlns="http://www.w3.org/2000/svg" width="88" height="88" viewBox="0 0 88 88">
	<path id="base" d="M205-961h88v88H205Z" transform="translate(-205 961)" fill="#fff" fill-rule="evenodd" opacity="0"/>
	<path id="loader" d="M248.6-959a42.512,42.512,0,0,0-35.863,19.492A41.659,41.659,0,0,0,207-925.465l7.973,1.363a33.631,33.631,0,0,1,4.591-11.117A34.313,34.313,0,0,1,248.6-951a34.492,34.492,0,0,1,18.37,5.3,33.826,33.826,0,0,1,10.589,46.921A34.31,34.31,0,0,1,248.523-883a34.491,34.491,0,0,1-18.37-5.3,34.082,34.082,0,0,1-6.8-5.634l-6.108,5.245a42.313,42.313,0,0,0,8.572,7.142,42.556,42.556,0,0,0,22.7,6.546,42.512,42.512,0,0,0,35.863-19.491,41.74,41.74,0,0,0-13.08-57.961A42.558,42.558,0,0,0,248.6-959Z" transform="translate(-205 961)" fill="#0f62fe" fill-rule="evenodd"/>
</svg>
