<?xml version="1.0" encoding="utf-8"?>
<svg xmlns="http://www.w3.org/2000/svg" width="41" height="40" viewBox="0 0 41 40">
  <g id="Group_12155" data-name="Group 12155" transform="translate(-359 -288)">
    <g id="overflow_menu_icon_02_hover" data-name="overflow menu / icon / 02 hover" transform="translate(359 288)">
      <rect id="background" width="32" height="32" fill="#e8e8e8"/>
      <g id="Actions_Navigation_overflow-menu--vertical_16" data-name="Actions / Navigation / overflow-menu--vertical / 16" transform="translate(8 8)">
        <path id="Fill" d="M1,12a1,1,0,1,1,1-1A1,1,0,0,1,1,12ZM1,7A1,1,0,1,1,2,6,1,1,0,0,1,1,7ZM1,2A1,1,0,1,1,2,1,1,1,0,0,1,1,2Z" transform="translate(7 2)" fill="#161616"/>
      </g>
    </g>
    <g id="Cursor_-_Pointer" data-name="Cursor - Pointer" transform="translate(380 308)">
      <path id="Path_248" data-name="Path 248" d="M230-65h20v20H230Z" transform="translate(-230 65)" fill="none" fill-rule="evenodd"/>
      <g id="soft-shadow" transform="translate(-0.064 -0.102)">
        <path id="Path_11222" data-name="Path 11222" d="M5.332,14.38c-.284-.359-.629-1.093-1.243-1.984-.348-.5-1.211-1.453-1.468-1.935a1.265,1.265,0,0,1-.146-.97A1.318,1.318,0,0,1,3.9,8.44a2.66,2.66,0,0,1,1.355.716,6.389,6.389,0,0,1,.71.788c.163.2.2.277.377.509.23.307.3.459.214.121-.071-.5-.187-1.343-.355-2.092-.128-.568-.159-.657-.281-1.093C5.791,6.925,5.725,6.6,5.6,6.108a14.16,14.16,0,0,1-.276-1.459A2.824,2.824,0,0,1,5.591,2.8a1.186,1.186,0,0,1,1.3-.22,2.636,2.636,0,0,1,.936,1.3A7.733,7.733,0,0,1,8.34,5.841C8.5,6.872,8.807,8.3,8.816,8.6c.024-.369-.068-1.146,0-1.5a1.074,1.074,0,0,1,.666-.8,1.946,1.946,0,0,1,.916-.055,1.266,1.266,0,0,1,.766.5,5.418,5.418,0,0,1,.384,1.831A6.731,6.731,0,0,1,11.828,7a1.245,1.245,0,0,1,.687-.479,2.784,2.784,0,0,1,.964-.008A1.408,1.408,0,0,1,14.156,7a5.516,5.516,0,0,1,.379,1.658c.015.141.074-.392.293-.736a1.035,1.035,0,0,1,1.9.639c.025.654.02.624.02,1.064,0,.517-.012.828-.04,1.2a11.744,11.744,0,0,1-.242,1.742,5.906,5.906,0,0,1-.652,1.384,7.211,7.211,0,0,0-1.191,1.813,4,4,0,0,0-.1.965,3.5,3.5,0,0,0,.121.922,5.845,5.845,0,0,1-1.234.035c-.391-.063-.875-.841-1-1.079a.379.379,0,0,0-.682-.023c-.225.383-.709,1.07-1.051,1.113-.668.084-2.054.031-3.139.02,0,0,.185-1.011-.227-1.358-.3-.259-.83-.784-1.144-1.06Z"/>
      </g>
      <g id="Hard-shadow" transform="translate(-0.064 -0.102)">
        <path id="Path_11223" data-name="Path 11223" d="M5.332,14.38c-.284-.359-.629-1.093-1.243-1.984-.348-.5-1.211-1.453-1.468-1.935a1.265,1.265,0,0,1-.146-.97A1.318,1.318,0,0,1,3.9,8.44a2.66,2.66,0,0,1,1.355.716,6.389,6.389,0,0,1,.71.788c.163.2.2.277.377.509.23.307.3.459.214.121-.071-.5-.187-1.343-.355-2.092-.128-.568-.159-.657-.281-1.093C5.791,6.925,5.725,6.6,5.6,6.108a14.16,14.16,0,0,1-.276-1.459A2.824,2.824,0,0,1,5.591,2.8a1.186,1.186,0,0,1,1.3-.22,2.636,2.636,0,0,1,.936,1.3A7.733,7.733,0,0,1,8.34,5.841C8.5,6.872,8.807,8.3,8.816,8.6c.024-.369-.068-1.146,0-1.5a1.074,1.074,0,0,1,.666-.8,1.946,1.946,0,0,1,.916-.055,1.266,1.266,0,0,1,.766.5,5.418,5.418,0,0,1,.384,1.831A6.731,6.731,0,0,1,11.828,7a1.245,1.245,0,0,1,.687-.479,2.784,2.784,0,0,1,.964-.008A1.408,1.408,0,0,1,14.156,7a5.516,5.516,0,0,1,.379,1.658c.015.141.074-.392.293-.736a1.035,1.035,0,0,1,1.9.639c.025.654.02.624.02,1.064,0,.517-.012.828-.04,1.2a11.744,11.744,0,0,1-.242,1.742,5.906,5.906,0,0,1-.652,1.384,7.211,7.211,0,0,0-1.191,1.813,4,4,0,0,0-.1.965,3.5,3.5,0,0,0,.121.922,5.845,5.845,0,0,1-1.234.035c-.391-.063-.875-.841-1-1.079a.379.379,0,0,0-.682-.023c-.225.383-.709,1.07-1.051,1.113-.668.084-2.054.031-3.139.02,0,0,.185-1.011-.227-1.358-.3-.259-.83-.784-1.144-1.06Z"/>
      </g>
      <path id="Outline" d="M14.724,7.471a1.548,1.548,0,0,1,1.242-.366A1.374,1.374,0,0,1,17.1,8.547c.015.388.019.54.02.694,0,.056,0,.1,0,.222,0,.073,0,.073,0,.162,0,.507-.011.83-.041,1.231a11.041,11.041,0,0,1-.255,1.816A6.172,6.172,0,0,1,16.1,14.2c-.035.041-.1.117-.181.218-.137.169-.274.346-.4.52-.067.092-.13.181-.187.267a2.383,2.383,0,0,0-.34.64,3.088,3.088,0,0,0-.082.542c0,.041,0,.041,0,.088,0,.127,0,.181-.01.279a1.522,1.522,0,0,0,0,.193,3.133,3.133,0,0,0,.05.364c.021.11.042.2.055.244l.114.416-.428.055c-.061.008-.164.019-.292.031-.17.015-.339.026-.5.029a3.131,3.131,0,0,1-.551-.027c-.48-.077-.956-.673-1.272-1.275-.431.682-.9,1.231-1.354,1.288a17.124,17.124,0,0,1-2.178.039l-.214,0c-.427-.008-.588-.01-.8-.012l-.445,0,.08-.438c0-.02.01-.063.017-.122a2.447,2.447,0,0,0,.009-.509.606.606,0,0,0-.127-.373c-.139-.118-.291-.259-.6-.55-.328-.312-.432-.409-.582-.544l-.832-.921c-.159-.2-.949-1.552-1.273-2.022-.12-.174-.175-.243-.68-.865l-.05-.062a7.4,7.4,0,0,1-.762-1.047,1.6,1.6,0,0,1-.185-1.2A1.692,1.692,0,0,1,3.935,8.067a2.776,2.776,0,0,1,1.557.8,2.814,2.814,0,0,1,.279.268c.054.058.109.121.168.19L6,9.393c-.019-.109-.039-.218-.062-.342q-.049-.258-.1-.487c-.062-.277-.1-.443-.143-.6l-.014-.054c-.022-.081-.125-.445-.119-.425-.054-.195-.1-.372-.151-.588l-.023-.1c-.067-.285-.1-.439-.145-.609a14.005,14.005,0,0,1-.284-1.508,2.865,2.865,0,0,1,.352-2.132,1.554,1.554,0,0,1,1.751-.311,1.982,1.982,0,0,1,.783.812c.071.121.135.247.2.387.037.08.14.314.126.283a8,8,0,0,1,.544,2.055c.026.162.056.34.092.543a1.273,1.273,0,0,1,.569-.375,2.312,2.312,0,0,1,1.1-.063,1.63,1.63,0,0,1,1.015.678q.043.074.08.156a1.63,1.63,0,0,1,.885-.569,3.137,3.137,0,0,1,1.1-.007,1.735,1.735,0,0,1,.921.654A2.317,2.317,0,0,1,14.724,7.471Z" transform="translate(-0.064 -0.102)" fill-rule="evenodd"/>
      <path id="Fill-2" data-name="Fill" d="M5.332,14.38c-.284-.359-.629-1.093-1.243-1.984-.348-.5-1.211-1.453-1.468-1.935a1.265,1.265,0,0,1-.146-.97A1.318,1.318,0,0,1,3.9,8.44a2.66,2.66,0,0,1,1.355.716,6.389,6.389,0,0,1,.71.788c.163.2.2.277.377.509.23.307.3.459.214.121-.071-.5-.187-1.343-.355-2.092-.128-.568-.159-.657-.281-1.093C5.791,6.925,5.725,6.6,5.6,6.108a14.16,14.16,0,0,1-.276-1.459A2.824,2.824,0,0,1,5.591,2.8a1.186,1.186,0,0,1,1.3-.22,2.636,2.636,0,0,1,.936,1.3A7.733,7.733,0,0,1,8.34,5.841C8.5,6.872,8.807,8.3,8.816,8.6a12.025,12.025,0,0,1,0-1.5,1.074,1.074,0,0,1,.666-.8,1.946,1.946,0,0,1,.916-.055,1.266,1.266,0,0,1,.766.5,5.418,5.418,0,0,1,.384,1.831A6.731,6.731,0,0,1,11.828,7a1.245,1.245,0,0,1,.687-.479,2.784,2.784,0,0,1,.964-.008A1.408,1.408,0,0,1,14.156,7a5.516,5.516,0,0,1,.379,1.658c.015.141.074-.392.293-.736a1.035,1.035,0,0,1,1.9.639c.025.654.02.624.02,1.064,0,.517-.012.828-.04,1.2a11.744,11.744,0,0,1-.242,1.742,5.906,5.906,0,0,1-.652,1.384,7.211,7.211,0,0,0-1.191,1.813,4,4,0,0,0-.1.965,3.5,3.5,0,0,0,.121.922,5.845,5.845,0,0,1-1.234.035c-.391-.063-.875-.841-1-1.079a.379.379,0,0,0-.682-.023c-.225.383-.709,1.07-1.051,1.113-.668.084-2.054.031-3.139.02,0,0,.185-1.011-.227-1.358-.3-.259-.83-.784-1.144-1.06Z" transform="translate(-0.064 -0.102)" fill="#fff" stroke="#000" stroke-width="0.75" fill-rule="evenodd"/>
      <line id="Right-Line" y1="3.5" transform="translate(13.502 11.148)" fill="none" stroke="#000" stroke-linecap="round" stroke-width="0.75"/>
      <line id="Center-Line" x1="0.016" y1="3.5" transform="translate(11.471 11.144)" fill="none" stroke="#000" stroke-linecap="round" stroke-width="0.75"/>
      <line id="Left-Line" y1="3.5" x2="0.021" transform="translate(9.49 11.148)" fill="none" stroke="#000" stroke-linecap="round" stroke-width="0.75"/>
    </g>
  </g>
</svg>