<?xml version="1.0" encoding="UTF-8"?>
<svg width="69px" height="20px" viewBox="0 0 69 20" version="1.1" xmlns="http://www.w3.org/2000/svg" xmlns:xlink="http://www.w3.org/1999/xlink">
    <title>slider</title>
    <g id="Editing-Patterns-White" stroke="none" stroke-width="1" fill="none" fill-rule="evenodd" opacity="0.65">
        <g id="05.2" transform="translate(-160.000000, -640.000000)">
            <g id="Group-10" transform="translate(15.000000, 170.000000)">
                <g id="slider-/-group-/-01-enabled" transform="translate(145.000000, 470.000000)">
                    <text id="End-value" font-family="IBMPlexMono, IBM Plex Mono" font-size="9" font-weight="normal" line-spacing="20" letter-spacing="0.205714281" fill="#161616">
                        <tspan x="57" y="9">10</tspan>
                    </text>
                    <rect id="middle-indicator" fill="#E0E0E0" x="32" y="7" width="1" height="4"></rect>
                    <path d="M10,11 L10,9 L53.8450704,9 C53.9309812,9.01067471 54,9.45429007 54,10 C54,10.5522847 53.9293081,11 53.8421053,11 L53.845,10.999 L53.8450704,11 L10,11 Z M9.15789474,9 C9.24509759,9 9.31578947,9.44771525 9.31578947,10 C9.31578947,10.5522847 9.24509759,11 9.15789474,11 C9.07069188,11 9,10.5522847 9,10 C9,9.44771525 9.07069188,9 9.15789474,9 Z" id="unselected" fill="#E0E0E0" transform="translate(31.500000, 10.000000) scale(1, -1) translate(-31.500000, -10.000000) "></path>
                    <text id="Start-value" font-family="IBMPlexMono, IBM Plex Mono" font-size="9" font-weight="normal" line-spacing="20" letter-spacing="0.205714281" fill="#161616">
                        <tspan x="0" y="9">0</tspan>
                    </text>
                    <g id="Selected" transform="translate(9.000000, 7.000000)" fill="#161616">
                        <path d="M0.304518047,3.99087118 C0.132547125,3.92465461 0,3.50626102 0,3 C0,2.44771525 0.157742033,2 0.352326692,2 L0.352326692,2 L13.740741,2 L13.740741,4 L0.352326692,4 Z" id="selected"></path>
                        <circle id="Handle" cx="15" cy="3" r="3"></circle>
                    </g>
                </g>
            </g>
        </g>
    </g>
</svg>
