<svg xmlns="http://www.w3.org/2000/svg" xmlns:xlink="http://www.w3.org/1999/xlink" width="72" height="26" viewBox="0 0 72 26">
	<defs>
		<clipPath id="clip-path">
			<path id="Path_5810" data-name="Path 5810" d="M797.5-1722a6.46,6.46,0,0,0-6.5,6.5,6.46,6.46,0,0,0,6.5,6.5,6.46,6.46,0,0,0,6.5-6.5A6.46,6.46,0,0,0,797.5-1722Zm-.929,9.286-2.507-2.507.836-.743,1.671,1.672,3.714-3.621.836.743Z" fill="#161616" clip-rule="evenodd" />
		</clipPath>
		<clipPath id="clip-path-2">
			<path id="Path_5809" data-name="Path 5809" d="M246-1583.714H780.857V-1827H246Z" transform="translate(-246 1827)" fill="#161616" />
		</clipPath>
	</defs>
	<g id="Group_10693" data-name="Group 10693" transform="translate(-1224 -728)">
		<g id="tile" transform="translate(1223 726)">
			<rect id="Rectangle_312" data-name="Rectangle 312" width="72" height="26" transform="translate(1 2)" fill="#f3f3f3" />
		</g>
		<g id="Group_5876" data-name="Group 5876" transform="translate(487 2457)" clip-path="url(#clip-path)">
			<g id="Group_5875" data-name="Group 5875" transform="translate(284.929 -1819.5)" clip-path="url(#clip-path-2)">
				<path id="Path_5808" data-name="Path 5808" d="M786-1727h22.286v22.286H786Z" transform="translate(-284.571 1819.857)" fill="#161616" />
			</g>
		</g>
	</g>
</svg>
